<svg width="20" height="20" viewBox="0 0 20 20" fill="none" xmlns="http://www.w3.org/2000/svg">
<path d="M6.66699 14.9993L10.0003 12.4577L13.3337 14.9993L12.0837 10.8743L15.417 8.49935H11.3337L10.0003 4.16602L8.66699 8.49935H4.58366L7.91699 10.8743L6.66699 14.9993ZM10.0003 18.3327C8.84755 18.3327 7.76421 18.1139 6.75033 17.6764C5.73644 17.2389 4.85449 16.6452 4.10449 15.8952C3.35449 15.1452 2.76074 14.2632 2.32324 13.2493C1.88574 12.2355 1.66699 11.1521 1.66699 9.99935C1.66699 8.84657 1.88574 7.76324 2.32324 6.74935C2.76074 5.73546 3.35449 4.85352 4.10449 4.10352C4.85449 3.35352 5.73644 2.75977 6.75033 2.32227C7.76421 1.88477 8.84755 1.66602 10.0003 1.66602C11.1531 1.66602 12.2364 1.88477 13.2503 2.32227C14.2642 2.75977 15.1462 3.35352 15.8962 4.10352C16.6462 4.85352 17.2399 5.73546 17.6774 6.74935C18.1149 7.76324 18.3337 8.84657 18.3337 9.99935C18.3337 11.1521 18.1149 12.2355 17.6774 13.2493C17.2399 14.2632 16.6462 15.1452 15.8962 15.8952C15.1462 16.6452 14.2642 17.2389 13.2503 17.6764C12.2364 18.1139 11.1531 18.3327 10.0003 18.3327ZM10.0003 16.666C11.8614 16.666 13.4378 16.0202 14.7295 14.7285C16.0212 13.4368 16.667 11.8605 16.667 9.99935C16.667 8.13824 16.0212 6.56185 14.7295 5.27018C13.4378 3.97852 11.8614 3.33268 10.0003 3.33268C8.13921 3.33268 6.56283 3.97852 5.27116 5.27018C3.97949 6.56185 3.33366 8.13824 3.33366 9.99935C3.33366 11.8605 3.97949 13.4368 5.27116 14.7285C6.56283 16.0202 8.13921 16.666 10.0003 16.666Z" fill="#745B0B"/>
</svg>
