<svg width="10" height="10" viewBox="0 0 10 10" fill="none" xmlns="http://www.w3.org/2000/svg">
<g clip-path="url(#clip0_4763_9057)">
<path d="M5.0001 0.0996094C2.2937 0.0996094 0.100098 2.29321 0.100098 4.99961C0.100098 7.70601 2.2937 9.89961 5.0001 9.89961C7.7065 9.89961 9.9001 7.70601 9.9001 4.99961C9.9001 2.29321 7.7065 0.0996094 5.0001 0.0996094ZM5.0717 1.97361C5.5897 1.97361 6.0793 2.09401 6.5149 2.30801C6.3153 2.49681 6.0321 2.77681 5.6641 3.14801C5.1533 3.66441 4.6293 4.20881 4.0933 4.78161C3.5573 5.35441 3.0797 5.88401 2.6633 6.36841C2.4813 6.58001 2.3393 6.75521 2.2365 6.89361C1.9557 6.41041 1.7949 5.84921 1.7949 5.25001C1.7949 3.44041 3.2621 1.97321 5.0717 1.97321V1.97361ZM5.0717 8.52681C4.4797 8.52681 3.9241 8.36961 3.4449 8.09481C3.5789 7.99281 3.7577 7.84481 3.9817 7.64921C4.4069 7.27921 4.8829 6.84361 5.4109 6.34481C5.9385 5.84481 6.4657 5.32921 6.9933 4.79761C7.3833 4.40361 7.7153 4.05681 7.9897 3.75721C8.2193 4.20481 8.3489 4.71241 8.3489 5.25041C8.3489 7.06001 6.8817 8.52681 5.0721 8.52681H5.0717Z" fill="#4C4639"/>
</g>
<defs>
<clipPath id="clip0_4763_9057">
<rect width="10" height="10" fill="white"/>
</clipPath>
</defs>
</svg>
