<svg width="63" height="64" viewBox="0 0 63 64" fill="none" xmlns="http://www.w3.org/2000/svg">
<g id="ic:twotone-error">
<path id="Vector" opacity="0.3" d="M31.5 11.4414C19.8975 11.4414 10.5 20.8389 10.5 32.4414C10.5 44.0439 19.8975 53.4414 31.5 53.4414C43.1025 53.4414 52.5 44.0439 52.5 32.4414C52.5 20.8389 43.1025 11.4414 31.5 11.4414ZM34.125 45.5664H28.875V40.3164H34.125V45.5664ZM34.125 35.0664H28.875V19.3164H34.125V35.0664Z" fill="#FE9F05"/>
<path id="Vector_2" d="M31.4737 6.19141C16.9837 6.19141 5.25 17.9514 5.25 32.4414C5.25 46.9314 16.9837 58.6914 31.4737 58.6914C45.99 58.6914 57.75 46.9314 57.75 32.4414C57.75 17.9514 45.99 6.19141 31.4737 6.19141ZM31.5 53.4414C19.8975 53.4414 10.5 44.0439 10.5 32.4414C10.5 20.8389 19.8975 11.4414 31.5 11.4414C43.1025 11.4414 52.5 20.8389 52.5 32.4414C52.5 44.0439 43.1025 53.4414 31.5 53.4414ZM28.875 40.3164H34.125V45.5664H28.875V40.3164ZM28.875 19.3164H34.125V35.0664H28.875V19.3164Z" fill="#FE9F05"/>
</g>
</svg>
